# xmcd
#
# Track frame offsets:
#  150
#  10640
#  27515
#
# Disc length: 707 seconds
#
# Revision: 0
# Processed by: cddbd v1.5.1PL2 Copyright (c) Steve Scherf et al.
# Submitted via: Collectorz.com_Music_Collector 6.10
#
DISCID=1702c103
DTITLE=Buzzcocks - Inventory - Singles 1977-1981 [CD4)
DYEAR=2003
DGENRE=Punk
TTITLE0=I Don't Mind
TTITLE1=Autonomy
TTITLE2=Moving Away From The Pulsebeat
EXTD=
EXTT0=
EXTT1=
EXTT2=
PLAYORDER=
